<svg xmlns="http://www.w3.org/2000/svg" viewBox="0 0 1080 1080"><defs><style>.cls-1{fill:#bcbcd1;}.cls-2{fill:#f5f5f5;stroke-width:13px;}.cls-12,.cls-2,.cls-8{stroke:#000;stroke-miterlimit:10;}.cls-3{fill:#212121;}.cls-4{fill:#111;}.cls-5{fill:#0500d6;}.cls-6{fill:#0400a1;}.cls-6,.cls-9{opacity:0.24;}.cls-7{fill:#f99d41;}.cls-12,.cls-8{fill:none;}.cls-9{fill:#ce630b;}.cls-10{fill:#463f3f;}.cls-11{fill:#2f2a2a;}.cls-12{stroke-width:3px;}.cls-13{fill:#563109;}</style></defs><g id="backgrounds"><rect class="cls-1" y="-0.7" width="1080" height="1080"/></g><g id="customer_care_copy" data-name="customer care copy"><polygon class="cls-2" points="1080 837.98 45.14 837.98 340.83 1079.3 1080 1079.3 1080 837.98"/><path class="cls-3" d="M649,831.81,606,945.89l-111.36-82.5c2.91-.19,5.6-.38,8-.57,10-.77,15.72-1.46,15.72-1.46a75.19,75.19,0,0,0,46.56,20.73c2.18.19,4.4.28,6.64.28h.4a81.13,81.13,0,0,0,10.77-.77c.91-.13,1.81-.27,2.7-.43,2-.35,4-.77,5.89-1.26a77.28,77.28,0,0,0,16.39-6.24,71.65,71.65,0,0,0,10.18-6.41c11.57-8.66,20.62-21.14,24.18-35.14Z"/><polygon class="cls-4" points="1048.88 701.44 982.79 866.8 963 919.13 959.87 945.85 607.77 946.67 676.47 766.21 701.24 701.44 729.96 700.25 1048.88 701.44"/><path class="cls-5" d="M412.53,675.18c-67.9-.48-141.81,4.46-179.31,7.41a259.18,259.18,0,0,1,3.95-26.14,265.26,265.26,0,0,1,20.32-62c16.44-34.71,40.86-65.09,70.24-89.74,25.54-21.42,54.51-38.55,85-51.95q11.68-5.14,23.7-9.58a156.43,156.43,0,0,0,275.69,24.7h0c69.61,34.41,144.25,130.27,156.35,230.54H727.94c-4.32-10.58-14.29-34.78-17.76-40.91-4.33-10-13.74-12.63-19.1-4.23a14.55,14.55,0,0,0-2.24,6.74c-.05.62-.1,1.24-.21,1.86l-8.77,93.56-27.39,73.86-9.35-2.21a48.17,48.17,0,0,0,.6-7.12c0,.12,0,.25,0,.37v-1.07c0,.23,0,.47,0,.7-.45-12.69-2.81-24.67-9.92-35.47-11.78-17.88-31.95-29-53-31.38L420,735.23a22.64,22.64,0,0,1-18.67-30.53Z"/><path class="cls-6" d="M868.47,698.38H739c-4.32-10.58-14.29-34.78-17.76-40.91-3.69-8.55-11.08-11.7-16.5-7.23a9.1,9.1,0,0,0-7.12-1.89c-3.42-.63-6.91.87-9.47,4.89a14.55,14.55,0,0,0-2.24,6.74c0,.62-.1,1.24-.21,1.86L675,753.49,653.8,808.87a59.18,59.18,0,0,0-8.94-24.41c-11.78-17.88-32-29-53-31.38L431.06,735.23a22.64,22.64,0,0,1-18.67-30.53l11.2-29.52q-6.87-.06-13.8,0h-2.93c-58.57-.17-120.71,3.51-159.54,6.35l-2.95.22c-4,.29-7.73.58-11.15.85a259.18,259.18,0,0,1,3.95-26.14,265.26,265.26,0,0,1,20.32-62c16.44-34.71,40.86-65.09,70.24-89.74,25.54-21.42,54.51-38.55,85-51.95q11.68-5.14,23.7-9.58,1,2.34,2,4.63a156.37,156.37,0,0,0,141.18,91.52h1.16c1.86,0,3.72,0,5.56-.1l1.47-.06a156.26,156.26,0,0,0,124.3-71.3h0q5.11,2.52,10.25,5.5C788.89,511.65,857,603,868.47,698.38Z"/><path class="cls-5" d="M865.54,698.38H739c-4.32-10.58-14.29-34.78-17.76-40.91-3.69-8.55-11.08-11.7-16.5-7.23a9.1,9.1,0,0,0-7.12-1.89c-3.42-.63-6.91.87-9.47,4.89a14.55,14.55,0,0,0-2.24,6.74c0,.62-.1,1.24-.21,1.86L675,753.49,653.8,808.87a59.18,59.18,0,0,0-8.94-24.41c-11.78-17.88-32-29-53-31.38L431.06,735.23a22.64,22.64,0,0,1-18.67-30.53l11.2-29.52q-6.87-.06-13.8,0h-2.93c-63,.33-128.14,4.71-162.58,7.42,0-.29.05-.57.09-.85a1.64,1.64,0,0,1,0-.22c.82-8.39,2.21-16.81,3.84-25.07a265.26,265.26,0,0,1,20.32-62c16.44-34.71,40.86-65.09,70.24-89.74,25.54-21.42,54.51-38.55,85-51.95q5.82-2.57,11.73-5A156.38,156.38,0,0,0,577.85,539.3h1.83c1.74,0,3.47-.07,5.2-.15l1.46.06c1.83.07,3.66.1,5.5.1a156.18,156.18,0,0,0,127.6-66C786,511.65,854,603,865.54,698.38Z"/><path class="cls-7" d="M690.19,332.7a206.43,206.43,0,0,1-9,25.93l-23.6,11.15h-.86a39.14,39.14,0,0,0-13.12,2.5c-11.51,4.18-13.48,12.79-12.22,16.44,1.12,3.82,8.13,8.12,19.63,3.94,7-2.56,12.58-6.49,15.42-10.46l3.79-1.69c-.28.49-.58,1-.87,1.47-.6,1-1.23,2-1.87,2.92l-.78,1.12a.94.94,0,0,1-.09.12c-.26.38-.54.76-.81,1.13l-.22.29c-.29.38-.57.75-.87,1.12s-.78,1-1.2,1.49c-.58.71-1.18,1.4-1.79,2.07l-.11.12c-1,1.09-2,2.15-3.07,3.16-.25.25-.5.49-.75.71L657,397l-.39.35q-.45.42-.93.81l-.62.53-1.14.93c-.34.28-.69.54-1,.81-.74.57-1.5,1.12-2.26,1.66-.39.27-.77.54-1.17.8l-.6.4-.61.39-1.23.77c-.42.27-.85.52-1.28.76l-1.3.73c-.39.22-.79.43-1.19.64-.7.37-1.4.73-2.12,1.07l-.55.26-1.2.54s0,0,0,0c-.44.2-.89.39-1.33.57l-1.07.44q-2,.81-4.08,1.47l-1,.31a.87.87,0,0,1-.26.08l-1,.3c-.35.1-.69.2-1,.28s-.74.2-1.11.29c-1.63.41-3.28.76-4.94,1l-.61.1c-.5.09-1,.16-1.51.23a66.18,66.18,0,0,1-37.2-5.66c-28.81-13.5-63.79-41-74.38-96a48.43,48.43,0,0,0,7.08-25.4,49.16,49.16,0,0,0-2.69-16.12h0c0-.13,0-.64.07-1.49,0-.22,0-.46,0-.73s0-.29,0-.45l0-.48c0-.34.05-.7.08-1.09.08-1.15.2-2.52.35-4.08,0-.26,0-.53.08-.8a1.8,1.8,0,0,1,0-.22c.1-1,.22-2,.34-3.12s.24-2,.39-3c.09-.67.18-1.36.28-2.07s.21-1.43.32-2.16c.28-1.84.6-3.79,1-5.83.15-.8.3-1.61.46-2.44s.32-1.67.5-2.53c.37-1.85.78-3.76,1.24-5.71.28-1.2.57-2.41.88-3.64q.68-2.76,1.49-5.62c.1-.34.19-.69.29-1,1-3.46,2.12-7,3.38-10.56l.53-1.47c.36-1,.73-2,1.11-3,.22-.59.45-1.17.69-1.76,1.42-3.57,3-7.14,4.75-10.68.25-.53.52-1.06.79-1.58s.48-.95.73-1.42c1-1.83,2-3.65,3-5.44,15.14-25.75,40.28-47,82-44.64,62.88,3.55,74.65,58.4,74.56,99.33,0,7.28-.4,14.12-1,20.15h0C698.93,281.13,697.21,307.08,690.19,332.7Z"/><path class="cls-7" d="M666.45,382.19l3.79-1.69c-.28.49-.58,1-.87,1.47a67.51,67.51,0,0,1-7.74,10.38l-2.85,1.27c-2.84,4-8.41,7.9-15.42,10.46-11.5,4.18-18.51-.12-19.63-3.94-1.06-3.06.16-9.6,7.35-14.1a7.19,7.19,0,0,0,.32,2.67c1.12,3.82,8.13,8.12,19.63,3.94C658,390.09,663.61,386.16,666.45,382.19Z"/><path class="cls-8" d="M676.47,766.21,678,753.49l10.68-91.65c.11-.62.16-1.24.21-1.86a14.55,14.55,0,0,1,2.24-6.74c5.36-8.4,14.77-5.8,19.1,4.23,3.47,6.13,13.44,30.33,17.76,40.91,1.25,3.08,2,5,2,5"/><path class="cls-7" d="M690.19,332.7a206.43,206.43,0,0,1-9,25.93l-3.89,1.84c2-5.38,3.71-10.85,5.21-16.34,7-25.62,8.74-51.57,2.49-69.89h0c.55-6,.93-12.87,1-20.15.09-40.93-11.68-95.78-74.56-99.33-35.34-2-58.78,12.94-74.33,33.21,15.14-25.75,40.28-47,82-44.64,62.88,3.55,74.65,58.4,74.56,99.33,0,7.28-.4,14.12-1,20.15h0C698.93,281.13,697.21,307.08,690.19,332.7Z"/><path class="cls-7" d="M712.11,467.84a156.43,156.43,0,0,1-275.69-24.7A423.42,423.42,0,0,1,482.72,429c8.47-2.08,25.28-5.24,25.28-5.24l.26-78,.11-31.54c.51-.72,1-1.47,1.46-2.23,10.59,55,45.57,82.49,74.38,96a66.18,66.18,0,0,0,37.2,5.66V438.5C623.76,436.91,663.71,443.91,712.11,467.84Z"/><path class="cls-7" d="M643.72,819.93a48.17,48.17,0,0,1-.6,7.12,51.18,51.18,0,0,1-1,5.07c-3.56,14-12.61,26.48-24.18,35.14a71.65,71.65,0,0,1-10.18,6.41,77.28,77.28,0,0,1-16.39,6.24c-1.93.49-3.9.91-5.89,1.26-.89.16-1.79.3-2.7.43a81.13,81.13,0,0,1-10.77.77h-.4c-2.24,0-4.46-.09-6.64-.28a75.19,75.19,0,0,1-46.56-20.73s-5.76.69-15.72,1.46c-2.43.19-5.12.38-8,.57-2.48.16-5.13.32-7.93.47-37.8,2-103.19,2.39-161.13-12.65-25.34-6.57-49.24-16.1-68.8-29.73-44.21-32-27.74-93.36-23.55-138.81a.22.22,0,0,1,0-.08c37.5-3,111.41-7.89,179.31-7.41l-11.2,29.52A22.64,22.64,0,0,0,420,735.23l160.78,17.85c21.07,2.41,41.24,13.5,53,31.38C640.91,795.26,643.27,807.24,643.72,819.93Z"/><path class="cls-9" d="M643.72,819.93a48.17,48.17,0,0,1-.6,7.12,51.18,51.18,0,0,1-1,5.07,57.8,57.8,0,0,1-3.91,10.72,67.13,67.13,0,0,1-20.27,24.42,71.65,71.65,0,0,1-10.18,6.41,77.28,77.28,0,0,1-16.39,6.24c-1.93.49-3.9.91-5.89,1.26-.89.16-1.79.3-2.7.43a81.13,81.13,0,0,1-10.77.77h-.4c-2.24,0-4.46-.09-6.64-.28a75.19,75.19,0,0,1-46.56-20.73s-5.76.69-15.72,1.46c-2.43.19-5.12.38-8,.57-2.48.16-5.13.32-7.93.47-37.8,2-103.19,2.39-161.13-12.65-25.34-6.57-49.24-16.1-68.8-29.73-44.21-32-27.74-93.36-23.55-138.81a.22.22,0,0,1,0-.08l10.49-.81c39.71-2.95,106.77-7,168.82-6.6l-11.2,29.52A22.64,22.64,0,0,0,420,735.23l160.78,17.85c21.07,2.41,41.24,13.5,53,31.38C640.91,795.26,643.27,807.24,643.72,819.93Z"/><path class="cls-7" d="M633.8,784.46c-11.78-17.88-31.95-29-53-31.38L420,735.23a22.64,22.64,0,0,1-18.67-30.53l11.2-29.52c-62-.44-129.11,3.65-168.82,6.6-5.35,42.86-13.59,94,25.42,122.19,19.56,13.63,43.46,23.16,68.8,29.73,57.94,15,123.33,14.65,161.13,12.65,2.8-.15,5.45-.31,7.93-.47,2.91-.19,5.6-.38,8-.57,10-.77,15.72-1.46,15.72-1.46a75.19,75.19,0,0,0,46.56,20.73c2.18.19,4.4.28,6.64.28h.4a81.13,81.13,0,0,0,10.77-.77c.91-.13,1.81-.27,2.7-.43,2-.35,4-.77,5.89-1.26a77.28,77.28,0,0,0,16.39-6.24,71.65,71.65,0,0,0,10.18-6.41,69.06,69.06,0,0,0,7.9-6.91,57.8,57.8,0,0,0,3.91-10.72,51.18,51.18,0,0,0,1-5.07,48.17,48.17,0,0,0,.6-7.12C643.27,807.24,640.91,795.26,633.8,784.46Z"/><path class="cls-10" d="M710.29,344.47A18.79,18.79,0,0,1,700,367.21L670.25,380.5h0l-3.79,1.69c-2.84,4-8.41,7.9-15.42,10.46-11.5,4.18-18.51-.12-19.63-3.94-1.26-3.65.71-12.26,12.22-16.44a39.14,39.14,0,0,1,13.12-2.5h.86l23.6-11.15.29-.14a18.79,18.79,0,0,0,9.44-23.92c-.25-.63-.5-1.25-.74-1.87,7-25.62,8.74-51.57,2.49-69.89h0c.55-6,.93-12.87,1-20.15l2.69,0c16.3,9.42,23.55,50,6.52,77.88Z"/><path class="cls-10" d="M658.72,121.17c-15.47-4.76-51-15.1-69.37-15.65-46.79-1.79-85.15,23.4-105.38,65.05-10.36,21.75-12.21,46.12-11.64,70.08a39.45,39.45,0,0,0-11.66,2.43c-.1-26.1,2.53-53.19,14.62-76.83,22.85-43.92,64.38-70,114.32-66.79C607,100,631.31,104,658.72,121.17Z"/><path class="cls-11" d="M461.48,259.18c9.06,0,16.4,12.56,16.4,28.06s-7.34,28.06-16.4,28.06-16.39-12.56-16.39-28.06S452.43,259.18,461.48,259.18Z"/><path class="cls-10" d="M514.22,270.38a49.16,49.16,0,0,1,2.69,16.12,48.43,48.43,0,0,1-7.08,25.4c-.46.76-.95,1.51-1.46,2.23-7.74,11.11-20,18.29-33.88,18.29-23.21,0-42.06-20.16-42.42-45.17,0-.25,0-.5,0-.75,0-20.12,12-37.22,28.61-43.42a39.45,39.45,0,0,1,11.66-2.43q1.07-.06,2.16-.06c18.19,0,33.7,12.38,39.73,29.78Zm-36.34,16.86c0-15.5-7.34-28.06-16.4-28.06s-16.39,12.56-16.39,28.06,7.34,28.06,16.39,28.06S477.88,302.74,477.88,287.24Z"/><path class="cls-4" d="M696.32,242.67l-2.69,0c.09-40.93-11.68-95.78-74.56-99.33C518.91,137.67,514.29,268,514.22,270.37c-6-17.4-21.54-29.78-39.73-29.78q-1.1,0-2.16.06c-.57-24,1.28-48.33,11.64-70.08,20.23-41.65,58.59-66.84,105.38-65,18.33.55,53.9,10.89,69.37,15.65.07.21.1.32.1.32C702.9,155,704.52,214.33,696.32,242.67Z"/><path class="cls-4" d="M658.72,121.17C631.31,104,607,100,589.61,99.46c-49.94-3.17-91.47,22.87-114.32,66.79-12.09,23.64-14.72,50.73-14.62,76.83-16.65,6.2-28.61,23.3-28.61,43.42,0,.25,0,.5,0,.75-6.16.76-17.89.51-23.2-10.89-25.09,8.78-31.88-15-31.88-15s-30.83,3.18-27.71-27.89c-19.43-5.07-10.69-25-10.69-25s-34.14-17.84-11-51.44c-23.18-49.82,17-61.58,17-61.58s-5.8-31.34,35.5-38c14.86-53.16,117-39.58,127-13.22,12-10.87,20.65-3.09,20.65-3.09s21.28-10.77,32.74,13c31.2,6.07,20.69,32.25,20.69,32.25s13.09-2.41,18.22,9.86c6.28-3.38,26.74-5,40.92,10.54C653.11,104.66,658,118.85,658.72,121.17Z"/><path class="cls-9" d="M621.41,413.55v9.91a66.32,66.32,0,0,1-44.87-4.14c-24.61-11.53-53.71-33.3-68.28-73.65l.11-31.54c.51-.72,1-1.47,1.46-2.23,10.59,55,45.57,82.49,74.38,96A66.18,66.18,0,0,0,621.41,413.55Z"/><path class="cls-4" d="M1053.2,698.38,964.78,920.25l-1.85,29H605.57l-.6-.61L486.69,863.86c2.8-.15,5.45-.31,7.93-.47l110.8,79.39,42.52-111-5.86.31a51.18,51.18,0,0,0,1-5.07l6.78-.36L678,753.49l-1.48,12.72,1.71.66-68,177.35h348l1.61-25.09L980.7,866.8l65.13-163.42H730s-.77-1.92-2-5H1053.2Z"/><path class="cls-4" d="M678.18,766.87l-1.71-.66L678,753.49l21.12-55.11h28.87c1.25,3.08,2,5,2,5H702.51"/><path class="cls-12" d="M514.22,270.38a49.16,49.16,0,0,1,2.69,16.12,48.43,48.43,0,0,1-7.08,25.4c-.46.76-.95,1.51-1.46,2.23-7.74,11.11-20,18.29-33.88,18.29-23.21,0-42.06-20.16-42.42-45.17,0-.25,0-.5,0-.75,0-20.12,12-37.22,28.61-43.42a39.45,39.45,0,0,1,11.66-2.43q1.07-.06,2.16-.06c18.19,0,33.7,12.38,39.73,29.78"/><path class="cls-12" d="M477.88,287.24c0,15.5-7.34,28.06-16.4,28.06s-16.39-12.56-16.39-28.06,7.34-28.06,16.39-28.06S477.88,271.74,477.88,287.24Z"/><path class="cls-8" d="M658.72,121.17c-15.47-4.76-51-15.1-69.37-15.65-46.79-1.79-85.15,23.4-105.38,65.05-10.36,21.75-12.21,46.12-11.64,70.08h0"/><path class="cls-8" d="M460.67,243.08c-.1-26.1,2.53-53.19,14.62-76.83,22.85-43.92,64.38-70,114.32-66.79,17.39.55,41.7,4.55,69.11,21.71"/><path class="cls-8" d="M670.25,380.5,700,367.21a18.79,18.79,0,0,0,10.28-22.74l-7.45-23.92c17-27.89,9.78-68.46-6.52-77.88,8.2-28.34,6.58-87.69-37.5-121.18,0,0,0-.11-.1-.32-.71-2.32-5.61-16.51-18.46-14.41-14.18-15.49-34.64-13.92-40.92-10.54-5.13-12.27-18.22-9.86-18.22-9.86s10.51-26.18-20.69-32.25c-11.46-23.81-32.74-13-32.74-13s-8.61-7.78-20.65,3.09c-10-26.36-112.11-39.94-127,13.22-41.3,6.7-35.5,38-35.5,38s-40.21,11.76-17,61.58c-23.09,33.6,11,51.44,11,51.44s-8.74,19.92,10.69,25C346.16,264.5,377,261.32,377,261.32s6.79,23.82,31.88,15c5.31,11.4,17,11.65,23.2,10.89"/><path class="cls-8" d="M690.19,332.7c.24.62.49,1.24.74,1.87a18.79,18.79,0,0,1-9.44,23.92l-.29.14-23.6,11.15h-.86a39.14,39.14,0,0,0-13.12,2.5c-11.51,4.18-13.48,12.79-12.22,16.44,1.12,3.82,8.13,8.12,19.63,3.94,7-2.56,12.58-6.49,15.42-10.46l3.79-1.69"/><path class="cls-8" d="M692.68,262.8c.55-6,.93-12.87,1-20.15.09-40.93-11.68-95.78-74.56-99.33C518.91,137.67,514.29,268,514.22,270.37h0"/><path class="cls-8" d="M692.68,262.8h0c6.25,18.32,4.53,44.27-2.49,69.89a206.43,206.43,0,0,1-9,25.93"/><path class="cls-8" d="M509.79,311.69c0,.07,0,.14,0,.21,10.59,55,45.57,82.49,74.38,96a66.18,66.18,0,0,0,37.2,5.66c.5-.07,1-.14,1.51-.23l.61-.1c1.66-.28,3.31-.63,4.94-1,.37-.09.74-.18,1.11-.29s.69-.18,1-.28l1-.3a.87.87,0,0,0,.26-.08c.33-.09.67-.2,1-.31q2.07-.66,4.08-1.47c.36-.14.72-.28,1.07-.44s.89-.37,1.33-.57c0,0,0,0,0,0l1.2-.54.55-.26c.72-.34,1.42-.69,2.12-1.07.4-.2.8-.41,1.19-.64s.87-.47,1.3-.73.86-.49,1.28-.76.83-.5,1.23-.77c.2-.12.41-.25.61-.39l.6-.4c.39-.26.79-.52,1.17-.8.76-.54,1.52-1.09,2.26-1.66.35-.26.69-.53,1-.81l1.14-.93.62-.53c.32-.26.62-.53.93-.81L657,397c.28-.24.55-.49.82-.76s.5-.46.75-.71c1.06-1,2.08-2.07,3.07-3.16l.11-.12c.61-.68,1.21-1.36,1.79-2.07.42-.49.82-1,1.2-1.49s.58-.74.87-1.12l.22-.29.81-1.13a.94.94,0,0,0,.09-.12l.78-1.12c.64-.95,1.27-1.92,1.87-2.92.29-.49.59-1,.87-1.47h0"/><path class="cls-8" d="M580.78,753.08,420,735.23a22.64,22.64,0,0,1-18.67-30.53l11.2-29.52,28-73.67"/><path class="cls-8" d="M712.12,467.84c69.61,34.41,144.25,130.27,156.35,230.54"/><path class="cls-8" d="M621.41,413.55V438.5c2.35-1.59,42.3,5.41,90.7,29.34"/><path class="cls-8" d="M643.72,819.93c-.45-12.69-2.81-24.67-9.92-35.47-11.78-17.88-31.95-29-53-31.38"/><g id="Layer_12" data-name="Layer 12"><path class="cls-13" d="M606,870.39c0,1.27,0,2.55,0,3.82a76.38,76.38,0,0,1-7.09,3.32q.12-3.54.1-7.07c-.19-19.92-4.16-37.42-11.8-52.05-13.95-26.68-35.74-34.83-36-34.91l2.37-6.6c1,.36,24.51,9.05,39.79,38.27C601.54,830.78,605.77,849.35,606,870.39Z"/><path class="cls-13" d="M580,882l-.4.06c-2.21.3-4.43.51-6.61.62.82-29.11-7.66-52.81-25.23-70.5-13.67-13.77-28.08-18.55-28.23-18.6l2.15-6.67c.65.21,15.93,5.24,30.8,20.09C565.65,820.09,580.83,843.64,580,882Z"/><path class="cls-13" d="M631.57,853.28c-.74,1-1.51,2.05-2.32,3.05a66.69,66.69,0,0,1-5.24,5.81c6.64-61.82-46.47-91-47-91.25l3.3-6.17c.62.33,15.23,8.24,28.8,24.73A96.68,96.68,0,0,1,631.57,853.28Z"/></g><path class="cls-8" d="M643.72,819.93c0-.23,0-.47,0-.7v1.07C643.74,820.18,643.73,820.05,643.72,819.93Z"/><path class="cls-8" d="M508.37,314.13l-.11,31.54-.26,78s-16.81,3.16-25.28,5.24a423.42,423.42,0,0,0-46.3,14.19q-12,4.42-23.7,9.58c-30.48,13.4-59.45,30.53-85,51.95-29.38,24.65-53.8,55-70.24,89.74a265.26,265.26,0,0,0-20.32,62,259.18,259.18,0,0,0-3.95,26.14.22.22,0,0,0,0,.08c-4.19,45.45-20.66,106.86,23.55,138.81,19.56,13.63,43.46,23.16,68.8,29.73,57.94,15,123.33,14.65,161.13,12.65l7.93-.47c2.91-.19,5.6-.38,8-.57,10-.77,15.72-1.46,15.72-1.46a75.19,75.19,0,0,0,46.56,20.73c2.18.19,4.4.28,6.64.28h.4a81.13,81.13,0,0,0,10.77-.77c.91-.13,1.81-.27,2.7-.43,2-.35,4-.77,5.89-1.26a77.28,77.28,0,0,0,16.39-6.24,71.65,71.65,0,0,0,10.18-6.41c11.57-8.66,20.62-21.14,24.18-35.14l1-5.07a48.17,48.17,0,0,0,.6-7.12"/><path class="cls-8" d="M712.12,467.84h0a156.43,156.43,0,0,1-275.69-24.7"/><path class="cls-8" d="M233.22,682.59c37.5-3,111.41-7.89,179.31-7.41"/></g></svg>