<svg xmlns="http://www.w3.org/2000/svg" viewBox="0 0 1080 1080">
        <defs>
          <style>
            .cls-1 {
              fill: white;
            }

            .cls-2 {
              fill: #0500d6;
            }

            .cls-3 {
              fill: #f5f5f5;
            }

            .cls-4 {
              fill: #111;
            }

            .cls-5 {
              fill: #f99d41;
            }

            .cls-6,
            .cls-7,
            .cls-8,
            .cls-9 {
              fill: none;
              stroke-miterlimit: 10;
            }

            .cls-6,
            .cls-8 {
              stroke: #000;
            }

            .cls-6,
            .cls-7,
            .cls-8 {
              stroke-width: 2px;
            }

            .cls-7 {
              stroke: #111;
            }

            .cls-8 {
              stroke-linecap: round;
            }

            .cls-9 {
              stroke: #663b29;
              stroke-width: 6px;
            }
          </style>
        </defs>
        <g id="Engineer_copy" data-name="Engineer copy">
          <path class="cls-2"
            d="M659.15,705.21l-10.07,16.72c-35.56-14.87-67.51,10.85-68.29,11.48C581.07,732.79,603.54,684.66,659.15,705.21Z" />
          <path class="cls-3"
            d="M617,170.4c-12.56.26-35.07.33-48.53-.84-17.18-1.5-87.19-12.2-100.14-12.2-12.48,0-13.27-3.55-19.3,3-.22.25-.47.51-.71.79a157.21,157.21,0,0,0-13.57,10.72,7.64,7.64,0,0,0-.16,11.15h-.21a11.36,11.36,0,0,0-2.93.08c-3.44.8-8.3-7.07-4.8-12.57a66.05,66.05,0,0,0,8.85-21.87C437.05,140.42,455.17,41.3,545.1,42s77.17,88.72,79.07,91.75a54.69,54.69,0,0,1,6.41,14.62c1.44,5.8-.2,11.21,2.62,13.47s21.13,8,21.37,10.4-22.72-2.44-29.83-2.09C623.19,170.24,620.48,170.33,617,170.4Z" />
          <path class="cls-3"
            d="M585.25,349.09c52.48,77.37,27.61,162.32,27.61,162.32L465,509.05c2.43-82.8-25.82-134.07-52.42-172.19a274.57,274.57,0,0,1,35.64-7.47,241.89,241.89,0,0,1,88.7,3.54q8.82,2.07,17.48,4.73a297.31,297.31,0,0,1,30.81,11.42Z" />
          <path class="cls-3"
            d="M774.76,632.76h-72l-32.3,53.62a77,77,0,0,0-11.25-6.16c-3.72-77.55-9.09-176-9.09-176,5.54-63.74-7.66-111.38-24.42-134.2q8.87,5.31,17.42,11.07c65.46,44,107.73,112,123.69,188.84A416.12,416.12,0,0,1,774.76,632.76Z" />
          <path class="cls-3"
            d="M338.77,622.7l-1-.33c-29.38-9.11-102.23-19.26-128.18-22.71-5.89-.78-9.37-1.22-9.37-1.22-4.11-.57,1.27-40.1,1.71-44.18,4.45-41.79,33.16-86,58.63-117.64,31.38-39,74.29-70.43,121.87-89.51,25.53,35.06,47.39,93.61,49.66,164.15.29,8.62,11.24,148.94-61.34,249.46a72.46,72.46,0,0,1-11.39-5.59,74.21,74.21,0,0,1-35.07-75.44A349.19,349.19,0,0,1,338.77,622.7Z" />
          <path class="cls-2"
            d="M683.51,842.25V1080l-389.22.2V871.82l0-.52q4.74.36,9.68.46c61,1.3,142.44-17.41,201.71-34.83l4-1.19c33.12-9.87,58.76-19.16,69.08-24a22.13,22.13,0,0,0,7.55-5.7c3.81-4.46,2.91-12.84,22.32-17.06L576.6,842.25Z" />
          <path class="cls-2"
            d="M650.16,504.24s5.37,98.43,9.09,176c-51.35-22.67-96.76,29.43-96.76,29.43s-75,50.74-160.73,55.87a73.45,73.45,0,0,1-31-4.8c72.58-100.52,61.63-240.84,61.34-249.46-2.27-70.54-24.13-129.09-49.66-164.15a289.41,289.41,0,0,1,30.21-10.25C439.22,375,467.47,426.25,465,509.05l147.82,2.36s24.87-85-27.61-162.32a349.22,349.22,0,0,1,40.49,21C642.5,392.86,655.7,440.5,650.16,504.24Z" />
          <path
            d="M678,789.81a5.87,5.87,0,0,1-8.13-1.68L563.67,626.46a5.88,5.88,0,0,1,1.69-8.12,5.79,5.79,0,0,1,2.62-1,5.91,5.91,0,0,1,5.51,2.63L679.68,781.68A5.87,5.87,0,0,1,678,789.81Z" />
          <path
            d="M678.2,790.11a6.47,6.47,0,0,1-9-2.38L667.31,785c-7.32-10.65-15.23-22.18-22.56-32.71-26.62-38.29-57-81.43-82.56-120l-1.83-2.76a10.36,10.36,0,1,1,17.28-11.35c12.43,19,25.52,39.26,37.56,58.5,16,25.48,39.84,64.5,55.8,90.09L678,778l1.76,2.81a9.9,9.9,0,0,1,.85,1.52,6.36,6.36,0,0,1-2.43,7.83Zm-.4-.61a5.43,5.43,0,0,0,1.83-6.77c-.4-.84-2.16-3.2-2.71-4.05-13.45-19.6-39.11-56.24-53-76.11-17.52-25.12-35.13-51.12-52-76.73l-1.83-2.76-.41-.61a.61.61,0,0,0-.12-.16,1.38,1.38,0,0,0-1.77-.25,1.45,1.45,0,0,0-.39,2.05l.11.18.23.34,1.8,2.78C594.8,666.1,622.45,711.29,647,750.84c6.74,10.89,14.23,22.8,21.06,33.7l1.76,2.8a5.54,5.54,0,0,0,8,2.16Z" />
          <path class="cls-4"
            d="M863.4,632.76,786.72,750c-16.14-4.25-32.73-4.63-34.78,1.61-1.62,4.93,10.39,10.94,23.23,16L774.3,769c-16-5.19-33.08-9.79-35.75-5.75-3.73,3.92,11.4,12.4,26.61,19.72l-2.11,3.22c-16-4.59-32.86-8.18-34.24-3.51-1.67,5.64,10.05,14.16,22.49,21.47l-3,4.63c-10.95-3.78-20.65-7.17-20.65-7.17a3.9,3.9,0,0,0-5.12,2.81l-2.35,10.49c-1.84,11.52-2,20.61,3.12,27.38H576.6L608.67,789l14.87-24.7h0l25.53-42.39,10.07-16.72,3.58-5.93h0l7.77-12.89,32.3-53.62H863.4Z" />
          <path class="cls-5"
            d="M822.81,783.22c.2,31.73-9.19,84.6-76.51,70.53-11.95-2.49-19.07-6.31-23-11.5-5.16-6.77-5-15.86-3.12-27.38l2.35-10.49a3.9,3.9,0,0,1,5.12-2.81s9.7,3.39,20.65,7.17c14.11,4.86,30.28,10.35,30.42,10s-14.14-6.85-27.39-14.66c-12.44-7.31-24.16-15.83-22.49-21.47,1.38-4.67,18.21-1.08,34.24,3.51,12.49,3.58,24.51,7.76,28.36,9.13a.14.14,0,0,0,.11-.26c-3.61-1.8-15-6.62-26.36-12.09-15.21-7.32-30.34-15.8-26.61-19.72,2.67-4,19.76.56,35.75,5.75,15.09,4.88,29.21,10.29,29.31,9.45s-14.65-5.32-28.44-10.79c-12.84-5.1-24.85-11.11-23.23-16,2-6.24,18.64-5.86,34.78-1.61,10.29,2.71,20.39,7,26.43,12.11A27.89,27.89,0,0,1,822.81,783.22Z" />
          <path class="cls-5"
            d="M623.54,764.32,608.67,789c-19.41,4.22-18.51,12.6-22.32,17.06a22.13,22.13,0,0,1-7.55,5.7c-10.32,4.8-36,14.09-69.08,24l-4,1.19C446.45,854.35,365,873.06,304,871.76q-4.93-.1-9.68-.46c-22.07-1.64-40.75-7.46-53.7-19.11-65.3-58.7-39.81-208-31.06-252.53,26,3.45,98.8,13.6,128.18,22.71l1,.33a349.19,349.19,0,0,0-14.5,57,74.21,74.21,0,0,0,35.07,75.44,72.46,72.46,0,0,0,11.39,5.59,73.45,73.45,0,0,0,31,4.8c85.7-5.13,160.73-55.87,160.73-55.87s45.41-52.1,96.76-29.43a77,77,0,0,1,11.25,6.16l-7.77,12.89h0l-3.58,5.93c-55.61-20.55-78.08,27.58-78.36,28.2.78-.63,32.73-26.35,68.29-11.48l-25.53,42.39Z" />
          <path class="cls-5"
            d="M557.85,314.72l-3.41,22.94Q545.78,335,537,332.93a241.89,241.89,0,0,0-88.7-3.54c5.73-5.88,10.61-12.32,13.35-20.27,5.1-14.8,7.32-31.49,1.93-46.46-2.86-8-6.78-15.47-9.62-23.44-6.23-17.43-7.2-35.82-5.57-54.06A133.4,133.4,0,0,0,434.58,183a7.64,7.64,0,0,1,.16-11.15,157.21,157.21,0,0,1,13.57-10.72c.24-.28.49-.54.71-.79,6-6.55,6.82-3,19.3-3,12.95,0,83,10.7,100.14,12.2,13.46,1.17,36,1.1,48.53.84,1.42,19.15,8.35,132.18-26.56,143.7C579.85,317.59,568.72,317.34,557.85,314.72Z" />
          <path class="cls-6"
            d="M448.77,185.24l-.42-.08A133.4,133.4,0,0,0,434.58,183a7.64,7.64,0,0,1,.16-11.15,157.21,157.21,0,0,1,13.57-10.72c.24-.28.49-.54.71-.79,6-6.55,6.82-3,19.3-3,12.95,0,83,10.7,100.14,12.2,13.46,1.17,36,1.1,48.53.84,3.49-.07,6.2-.16,7.75-.24,7.11-.35,30.06,4.48,29.83,2.09s-18.55-8.14-21.37-10.4-1.18-7.67-2.62-13.47a54.69,54.69,0,0,0-6.41-14.62c-1.9-3,10.86-91-79.07-91.75s-108,98.41-109.61,106.64a66.05,66.05,0,0,1-8.85,21.87c-3.5,5.5,1.36,13.37,4.8,12.57a11.36,11.36,0,0,1,2.93-.08h.21" />
          <path class="cls-6"
            d="M492.82,270.3c10.15,14.7,36.69,37.6,65,44.42,10.87,2.62,22,2.87,32.58-.62,34.91-11.52,28-124.55,26.56-143.7h0" />
          <path class="cls-6"
            d="M451.35,163.66c-1.3,7.1-2.35,14.29-3,21.5-1.63,18.24-.66,36.63,5.57,54.06,2.84,8,6.76,15.49,9.62,23.44,5.39,15,3.17,31.66-1.93,46.46-2.74,7.95-7.62,14.39-13.35,20.27" />
          <line class="cls-6" x1="557.85" y1="314.72" x2="554.44" y2="337.66" />
          <polyline class="cls-6" points="683.51 842.25 683.51 1080 294.29 1080.2 294.29 871.82" />
          <path class="cls-6" d="M625.74,370c16.76,22.82,30,70.46,24.42,134.2,0,0,5.37,98.43,9.09,176" />
          <path class="cls-6"
            d="M382.41,347.11c25.53,35.06,47.39,93.61,49.66,164.15.29,8.62,11.24,148.94-61.34,249.46" />
          <path class="cls-6"
            d="M412.62,336.86C439.22,375,467.47,426.25,465,509.05l147.82,2.36s24.87-85-27.61-162.32" />
          <line class="cls-7" x1="765.16" y1="782.93" x2="763.05" y2="786.15" />
          <polyline class="cls-7"
            points="623.55 764.32 649.08 721.93 659.15 705.21 662.73 699.28 662.73 699.27 670.5 686.38 702.8 632.76 774.76 632.76 863.4 632.76 786.72 749.97" />
          <polyline class="cls-7" points="723.27 842.25 683.51 842.25 576.6 842.25 608.67 789.02 623.54 764.32" />
          <line class="cls-7" x1="775.17" y1="767.62" x2="774.3" y2="768.96" />
          <line class="cls-7" x1="751.3" y1="804.11" x2="748.27" y2="808.74" />
          <path class="cls-8"
            d="M720.15,814.87c-1.84,11.52-2,20.61,3.12,27.38,4,5.19,11.08,9,23,11.5,67.32,14.07,76.71-38.8,76.51-70.53a27.89,27.89,0,0,0-9.66-21.14c-6-5.13-16.14-9.4-26.43-12.11-16.14-4.25-32.73-4.63-34.78,1.61-1.62,4.93,10.39,10.94,23.23,16,13.79,5.47,28.54,9.89,28.44,10.79s-14.22-4.57-29.31-9.45c-16-5.19-33.08-9.79-35.75-5.75-3.73,3.92,11.4,12.4,26.61,19.72,11.35,5.47,22.75,10.29,26.36,12.09a.14.14,0,0,1-.11.26c-3.85-1.37-15.87-5.55-28.36-9.13-16-4.59-32.86-8.18-34.24-3.51-1.67,5.64,10.05,14.16,22.49,21.47,13.25,7.81,27.39,14.3,27.39,14.66s-16.31-5.17-30.42-10c-10.95-3.78-20.65-7.17-20.65-7.17a3.9,3.9,0,0,0-5.12,2.81l-2.35,10.49" />
          <path class="cls-8" d="M623.55,764.32h0c-10.28-7.24-29.88-3.18-35.92,8.72" />
          <path class="cls-8" d="M582.66,752.24c12.65-12.93,36.28-16.5,52-8.15" />
          <path class="cls-6"
            d="M338.77,622.7a349.19,349.19,0,0,0-14.5,57,74.21,74.21,0,0,0,35.07,75.44,72.46,72.46,0,0,0,11.39,5.59,73.45,73.45,0,0,0,31,4.8c85.7-5.13,160.73-55.87,160.73-55.87s45.41-52.1,96.76-29.43a77,77,0,0,1,11.25,6.16" />
          <path class="cls-6" d="M580.79,733.41c.28-.62,22.75-48.75,78.36-28.2" />
          <path class="cls-6" d="M649.08,721.93c-35.56-14.87-67.51,10.85-68.29,11.48h0" />
          <path class="cls-6"
            d="M608.67,789c-19.41,4.22-18.51,12.6-22.32,17.06a22.13,22.13,0,0,1-7.55,5.7c-10.32,4.8-36,14.09-69.08,24l-4,1.19C446.45,854.35,365,873.06,304,871.76q-4.93-.1-9.68-.46c-22.07-1.64-40.75-7.46-53.7-19.11-65.3-58.7-39.81-208-31.06-252.53" />
          <path class="cls-6"
            d="M355.44,547.63c18.79,35.29.42,80.93.42,80.93-1.59-.54-13.27-4.59-17.09-5.86l-1-.33c-29.38-9.11-102.23-19.26-128.18-22.71-5.89-.78-9.37-1.22-9.37-1.22-4.11-.57,1.27-40.1,1.71-44.18,4.45-41.79,33.16-86,58.63-117.64,31.38-39,74.29-70.43,121.87-89.51a289.41,289.41,0,0,1,30.21-10.25,274.57,274.57,0,0,1,35.64-7.47,241.89,241.89,0,0,1,88.7,3.54q8.82,2.07,17.48,4.73a297.31,297.31,0,0,1,30.81,11.42h0a349.22,349.22,0,0,1,40.49,21q8.87,5.31,17.42,11.07c65.46,44,107.73,112,123.69,188.84a416.12,416.12,0,0,1,7.91,62.81" />
        </g>
        <g id="Layer_10" data-name="Layer 10">
          <path class="cls-9" d="M492.11,195.87l-2.72,7.26a22.1,22.1,0,0,0,1.13,18.07l2.3,4.4" />
          <path d="M509.72,835.74V1080h-4V836.93Z" />
        </g>
      </svg>