<svg xmlns="http://www.w3.org/2000/svg" viewBox="0 0 1080 1080"><defs><style>.cls-1{fill:#0b0957;}.cls-2{fill:#010028;}.cls-3{fill:#f5f5f5;}.cls-4{fill:#0500d6;}.cls-5{fill:none;stroke:#010028;stroke-miterlimit:10;stroke-width:5px;}.cls-6{fill:#0606b7;}</style></defs><g id="pan_copy_2" data-name="pan copy 2"><path class="cls-1" d="M771.46,525.62A159.1,159.1,0,0,1,757.35,647c-6.91,12.36-15.35,25-25.58,35.33a18.91,18.91,0,0,1-7.45,4.94,26.35,26.35,0,0,1-5.83,1.46c-.5,0-.87.33-1.37.33a23.7,23.7,0,0,1-10.7-2.9L669.58,663.6c41.95-64,69.43-137,81.7-208.62Z"/><path class="cls-2" d="M904.7,918.74v41H485v-43.5l1.39-2.63,67.32-127.26c46.27-33.32,85-75.6,115.89-122.74l37.62,21.06a20.3,20.3,0,0,0,9.92,2.59q.75,0,1.5-.06a19.78,19.78,0,0,0,5.1-1.05,20.33,20.33,0,0,0,7.87-4.93A158.9,158.9,0,0,0,757.35,647l1.29.73,99.92,93.75L904,913.66l.68,2.57Z"/><path class="cls-3" d="M660.34,137.71c44.51,25.86,66.69,75,65.92,146.09C725.58,345.93,707,423,672.52,506.71,645.17,570.43,596,646,541.08,708.78c-61.76,70.59-125.89,120.05-180.57,139.27-37.55,13.2-70.6,12.43-98.22-2.28s-44-38.91-52-76.32c-17.57-82.71,1.81-185.83,59.25-315.27,5.48-12.34,10.86-24,16.22-35.18s10.7-21.81,16.1-32.1c45.74-87.24,96.15-149.73,158.65-196.67,36.07-27.08,96.31-64.95,151.14-64.95C628.72,125.28,645.24,128.94,660.34,137.71Z"/><path class="cls-4" d="M751.28,455C739,526.64,711.53,599.6,669.58,663.6,638.69,710.74,600,753,553.69,786.34c-55.76,40.16-122.48,67.32-199.61,74.29,3.22-.94,6.47-3.87,9.75-5,56.28-19.78,120.59-69.69,183.47-141.55C602.9,650.5,654,575.29,681.74,510.59c35-84.9,51.44-163.29,52.13-226.68.22-21,.86-40.27-2.85-57.79C759.2,289.85,765.55,371.53,751.28,455Z"/><path class="cls-4" d="M354.08,860.63a154.58,154.58,0,0,1-43.75,6.8,110.51,110.51,0,0,1-52.74-12.84c-29.89-15.92-48.55-43.09-57-83.07-10.2-48-8.28-103.58,5.71-165.12,10.72-47.15,28.45-98.27,54.19-156.27,11-24.89,21.71-47.09,32.6-67.88,46.46-88.6,97.78-152.15,161.51-200,49.25-37,142.13-93.07,210.82-53.17,24.71,14.35,43.25,35.62,55.09,63.2A179.92,179.92,0,0,1,731,226.12a266.11,266.11,0,0,1,5.24,57.79c-.69,63.39-19.55,141.78-54.52,226.68C654,575.29,604.21,651.81,548.61,715.37c-62.88,71.86-128.5,122.33-184.78,142.11C360.55,858.63,357.3,859.69,354.08,860.63ZM726.26,283.8c.77-71.08-21.41-120.23-65.92-146.09-15.1-8.77-31.62-12.43-48.65-12.43-54.83,0-115.07,37.87-151.14,64.95C398.05,237.17,347.64,299.66,301.9,386.9c-5.4,10.29-10.74,20.94-16.1,32.1s-10.74,22.84-16.22,35.18c-57.44,129.44-76.82,232.56-59.25,315.27,7.94,37.41,24.46,61.66,52,76.32s60.67,15.48,98.22,2.28c54.68-19.22,118.81-68.68,180.57-139.27C596,646,645.17,570.43,672.52,506.71,707,423,725.58,345.93,726.26,283.8Z"/></g><g id="Layer_19" data-name="Layer 19"><path class="cls-5" d="M719.19,202.68A251.8,251.8,0,0,1,731,226.12C759.2,289.85,765.55,371.53,751.28,455,739,526.64,711.53,599.6,669.58,663.6,638.69,710.74,600,753,553.69,786.34c-55.76,40.16-122.48,67.32-199.61,74.29a442.11,442.11,0,0,1-47.42,1.72"/><path class="cls-5" d="M669.58,663.6l37.62,21.06a20.3,20.3,0,0,0,9.92,2.59q.75,0,1.5-.06a19.78,19.78,0,0,0,5.1-1.05,20.33,20.33,0,0,0,7.87-4.93,159,159,0,0,0,39.87-155.59L751.28,455v0"/><polyline class="cls-5" points="758.64 647.71 858.56 741.46 904.02 913.66 904.7 916.23 904.7 918.74 904.7 959.73 484.98 959.73 484.98 918.74 484.98 916.23 486.37 913.6 553.69 786.34 553.7 786.32"/></g><g id="Layer_18" data-name="Layer 18"><ellipse class="cls-4" cx="550.93" cy="520.52" rx="25.83" ry="13.79" transform="translate(-145.07 820.61) rotate(-66.7)"/><polygon class="cls-4" points="431.55 815.48 280.63 414.44 280.63 412.08 282.17 412.07 717.11 197.65 718.88 201.24 285.14 415.06 435.3 814.07 431.55 815.48"/><path class="cls-2" d="M299.87,405.57l2.18,2.18a9.48,9.48,0,0,1,0,13.39l-12.18,12.18-.54.54a9.48,9.48,0,0,1-13.39,0L274.12,432l-10.9-10.9a9.46,9.46,0,0,1,0-13.39L275.94,395a9.46,9.46,0,0,1,13.39,0l1.82,1.82Z"/><path class="cls-6" d="M904.7,916.23v2.51L703.19,900.42,485,918.74v-2.51l1.39-2.63,214.52-18,17.73-208.4a19.78,19.78,0,0,0,5.1-1.05L705.9,895.64l198.12,18Z"/></g></svg>