<?xml version="1.0" encoding="UTF-8"?>
<!DOCTYPE svg PUBLIC "-//W3C//DTD SVG 1.1//EN" "http://www.w3.org/Graphics/SVG/1.1/DTD/svg11.dtd">
<!-- Creator: CorelDRAW X8 -->
<svg xmlns="http://www.w3.org/2000/svg" xml:space="preserve" width="8.26772in" height="11.6929in" version="1.1" style="shape-rendering:geometricPrecision; text-rendering:geometricPrecision; image-rendering:optimizeQuality; fill-rule:evenodd; clip-rule:evenodd"
viewBox="0 0 8268 11693"
 xmlns:xlink="http://www.w3.org/1999/xlink">
 <defs>
  <style type="text/css">
   <![CDATA[
    .fil2 {fill:#8F3030}
    .fil0 {fill:#363435;fill-rule:nonzero}
    .fil1 {fill:#8F3030;fill-rule:nonzero}
    .fil3 {fill:white;fill-rule:nonzero}
   ]]>
  </style>
 </defs>
 <g id="Layer_x0020_1">
  <metadata id="CorelCorpID_0Corel-Layer"/>
  <g id="_2690638343024">
   <g>
    <g>
     <path class="fil0" d="M4482 8005c43,-25 91,-40 139,-47 29,-1 58,-7 87,-2 0,37 0,75 0,112 -44,4 -90,13 -126,42 -46,36 -62,96 -64,152 0,64 0,127 0,190 64,1 127,0 190,1 0,36 0,73 0,110 -63,-1 -125,1 -188,-1 -4,34 -1,67 -2,101 0,289 0,577 0,866 1,7 1,20 -10,17 -46,-1 -93,-1 -139,0 -11,-1 -22,1 -32,-4 2,-36 -1,-71 2,-107 -1,-20 -3,-40 1,-59 -4,-51 -1,-102 -2,-153 1,-28 -2,-57 2,-85 -4,-29 -1,-59 -2,-89 0,-132 0,-264 0,-396 -1,-30 1,-60 -1,-91 -42,1 -83,1 -124,0 1,-36 0,-73 0,-109 42,-1 83,-1 124,0 4,-95 -8,-193 21,-285 21,-67 64,-127 124,-163z"/>
     <path class="fil0" d="M5633 8048c25,-3 53,-5 76,8 31,15 54,47 56,83 2,43 -29,84 -70,97 -54,19 -122,-12 -136,-70 -15,-51 23,-107 74,-118z"/>
     <path class="fil0" d="M3464 8150c55,1 110,0 165,0 157,465 314,930 471,1395 -64,0 -128,0 -193,0 -25,-77 -49,-155 -74,-233 -19,-62 -38,-123 -58,-184 -157,0 -314,-1 -470,0 -11,-2 -12,10 -14,17 -34,107 -71,214 -104,321l-2 3c-7,26 -16,51 -24,76 -57,1 -114,0 -171,0 65,-192 131,-384 195,-576l2 -3c33,-103 69,-205 104,-307 33,-102 69,-202 102,-303l2 -4c22,-67 44,-135 69,-202zm75 167l0 0c-12,57 -25,113 -43,168 -56,177 -111,354 -166,530 138,2 276,1 414,1 -42,-144 -89,-287 -131,-431 -25,-86 -57,-171 -70,-261 -1,-1 -3,-5 -4,-7z"/>
     <path class="fil0" d="M6373 8435c38,-4 76,-3 115,0 64,8 129,26 179,70 -14,34 -29,67 -41,102 -21,-11 -40,-26 -63,-34 -18,-7 -37,-11 -56,-15 -49,-4 -101,-3 -147,17 -52,22 -92,66 -117,116 -36,69 -47,148 -54,224 -3,68 -3,136 5,204 4,18 7,36 10,54 3,13 6,26 10,40 15,52 38,103 74,144 41,48 102,77 165,77 60,1 120,-17 169,-53 14,31 25,63 38,94 2,7 9,18 0,24 -38,30 -85,47 -132,57 -83,16 -172,15 -251,-19 -87,-37 -155,-110 -197,-194 -34,-66 -54,-137 -65,-210 -7,-65 -14,-132 -6,-197 2,-70 15,-138 36,-204 28,-80 71,-156 136,-212 54,-47 122,-75 192,-85z"/>
     <path class="fil0" d="M7155 8435c78,-5 158,-4 233,20 70,22 134,67 170,131 36,61 48,132 48,201 0,229 0,459 0,688 -1,6 1,16 -7,18 -107,53 -227,71 -345,73 -103,1 -211,-13 -300,-69 -69,-43 -115,-120 -123,-200 -14,-95 7,-200 72,-273 67,-77 165,-117 262,-144 28,-8 56,-13 84,-20 7,-1 14,-2 21,-2l4 -3c54,-7 107,-17 161,-21 7,-25 2,-51 3,-77 -3,-32 -5,-66 -18,-96 -19,-46 -60,-81 -107,-96 -38,-13 -79,-15 -119,-14 -73,-2 -146,17 -214,46 -16,6 -32,16 -49,20 -12,-35 -27,-69 -41,-104 81,-45 173,-68 265,-78zm90 525l0 0c-60,15 -119,37 -166,78 -37,30 -61,74 -72,120 -13,60 -14,125 9,183 17,47 58,82 105,100 67,25 141,25 212,16 36,-6 76,-12 106,-35 -1,-165 0,-331 0,-496 -66,6 -131,18 -194,34z"/>
     <path class="fil0" d="M5022 8464c115,-32 236,-31 354,-31 -2,15 -8,29 -11,43l-2 4c-8,29 -19,58 -27,88 -18,-2 -34,-6 -51,-10 -68,-5 -143,-7 -201,34 2,317 0,635 1,953 -59,1 -119,0 -178,0 0,-345 -1,-689 0,-1034 37,-19 75,-35 115,-47z"/>
     <path class="fil0" d="M5573 8452c59,1 119,-1 178,1 -1,364 0,728 0,1092 -59,1 -118,0 -177,1 -2,-142 0,-285 -1,-427 0,-222 0,-444 0,-667z"/>
     <path class="fil0" d="M6103 10136c10,-15 27,-19 44,-15 11,8 21,23 15,38 -8,20 -37,26 -52,9 -10,-8 -7,-21 -7,-32z"/>
     <path class="fil0" d="M4108 10479c1,-114 -1,-229 1,-343 59,1 118,0 178,0 0,15 0,31 0,46 -43,0 -85,0 -128,0 0,33 0,67 0,101 39,0 78,0 116,0 1,15 1,30 0,45 -39,0 -78,-1 -116,0 0,35 1,70 0,105 37,2 74,0 111,1 6,-1 12,0 18,3 -1,14 -1,28 -1,43 -60,-1 -120,0 -179,-1z"/>
     <path class="fil0" d="M6858 10136c18,0 37,0 56,0 23,47 45,94 68,141 2,4 5,8 8,11 25,-51 48,-102 75,-152 18,0 37,0 55,0 -33,69 -70,136 -103,205 -4,46 -1,92 -2,138 -18,1 -36,1 -54,0 0,-43 0,-86 0,-128 0,-12 -7,-22 -12,-32 -25,-49 -50,-98 -75,-147 -6,-11 -13,-23 -16,-36z"/>
     <path class="fil0" d="M4752 10236c28,-10 57,-18 87,-16 39,-2 81,14 103,48 17,24 19,54 22,83 -2,36 -10,76 -38,102 -32,31 -82,35 -123,24 -1,35 1,70 -1,105 -17,-1 -33,-1 -50,-1 0,-115 0,-230 0,-345zm51 30l0 0c0,57 0,113 0,170 26,9 60,11 81,-10 22,-20 28,-52 27,-80 0,-28 -8,-59 -32,-75 -23,-16 -52,-13 -76,-5z"/>
     <path class="fil0" d="M5113 10220c33,-3 68,9 89,35 25,31 33,73 30,112 -2,32 -13,65 -36,88 -32,33 -84,38 -124,19 -35,-16 -56,-54 -61,-91 -7,-43 -1,-91 26,-126 18,-23 47,-37 76,-37zm-40 69l0 0c-13,25 -14,54 -12,82 4,20 6,42 23,57 15,17 43,19 63,8 17,-9 24,-28 30,-45 3,-25 3,-50 0,-75 -4,-21 -15,-44 -36,-52 -25,-11 -57,1 -68,25z"/>
     <path class="fil0" d="M7185 10227c42,-16 96,-8 125,28 32,40 37,95 25,143 -9,39 -38,74 -78,84 -40,10 -87,-2 -113,-36 -32,-43 -33,-101 -20,-151 11,-29 31,-57 61,-68zm26 36l0 0c-29,9 -40,41 -42,69 -3,32 -1,68 20,94 20,23 61,23 80,-2 14,-19 19,-44 19,-68 0,-26 -2,-54 -18,-75 -13,-18 -38,-26 -59,-18z"/>
     <path class="fil0" d="M4342 10236c29,-10 60,-18 91,-17 29,0 59,6 80,27 26,-17 57,-28 88,-27 31,0 66,14 79,44 10,21 7,45 8,68 0,49 -1,99 0,148 -17,1 -34,1 -51,0 1,-49 0,-99 0,-148 0,-19 2,-42 -13,-57 -23,-21 -60,-15 -84,3 0,67 0,135 1,202 -18,1 -35,1 -53,0 0,-59 1,-118 0,-178 1,-17 -12,-32 -28,-37 -21,-6 -45,-4 -66,4 -3,70 0,141 -1,212 -18,0 -35,0 -52,-1 1,-81 -1,-162 1,-243z"/>
     <path class="fil0" d="M5265 10224c16,1 32,1 49,0 18,69 37,138 54,207 12,-70 35,-138 53,-206 16,-1 32,-1 49,-1 16,55 30,111 46,167 4,11 3,25 10,35 13,-68 36,-133 50,-201 17,-1 35,-1 53,0 -20,65 -39,130 -58,195 -6,20 -12,40 -18,60 -18,-1 -37,2 -54,-2 -18,-64 -36,-128 -53,-193 -15,60 -34,119 -50,178 0,4 -1,10 -1,14 -19,6 -38,2 -56,3 -20,-63 -38,-126 -57,-189 -6,-22 -15,-44 -17,-67z"/>
     <path class="fil0" d="M5666 10301c10,-37 40,-70 78,-79 36,-7 78,-2 105,25 27,26 32,65 32,101 -13,7 -29,5 -42,8 -43,6 -86,12 -129,18 0,30 21,58 49,66 33,8 67,0 99,-9 7,10 10,24 15,36 -33,15 -69,20 -104,17 -36,-2 -72,-20 -90,-52 -23,-39 -25,-88 -13,-131zm70 -33l0 0c-22,16 -30,45 -30,71 36,-4 72,-8 108,-14 4,0 11,-1 14,-1 3,-26 -9,-56 -36,-64 -19,-4 -40,-4 -56,8z"/>
     <path class="fil0" d="M5935 10235c40,-13 83,-18 126,-15 -3,15 -6,29 -10,44 -22,-5 -45,-4 -66,4 1,70 0,141 0,212 -17,0 -34,0 -51,0 0,-82 -2,-163 1,-245z"/>
     <path class="fil0" d="M6108 10224c17,0 34,0 51,0 0,85 -1,170 0,255 -17,1 -35,1 -52,0 1,-85 0,-170 1,-255z"/>
     <path class="fil0" d="M6228 10236c39,-16 83,-19 125,-15 28,5 58,19 68,48 10,29 9,61 6,92 3,23 3,46 0,69 3,16 1,32 2,48 -18,2 -35,2 -53,2 -1,-51 0,-103 0,-154 0,-19 0,-42 -17,-55 -24,-17 -56,-10 -83,-3 0,70 0,141 0,211 -18,1 -36,1 -53,0 0,-74 0,-148 0,-222 1,-7 -3,-17 5,-21z"/>
     <path class="fil0" d="M6514 10254c24,-26 62,-36 97,-35 28,-1 56,7 82,17 2,79 1,159 1,239 1,33 -9,70 -37,90 -48,33 -111,22 -162,3 3,-13 7,-26 13,-37 15,-2 29,7 44,9 24,2 53,6 73,-11 19,-17 18,-45 18,-68 -37,12 -81,14 -114,-9 -30,-20 -45,-56 -47,-91 -2,-38 5,-79 32,-107zm51 17l0 0c-17,10 -25,30 -30,49 -3,31 -3,67 20,92 22,24 60,22 88,10 -1,-52 0,-105 0,-157 -26,-7 -55,-10 -78,6z"/>
     <path class="fil0" d="M7395 10225c16,-1 33,-1 51,-1 0,56 0,111 0,166 0,17 4,38 21,46 24,11 52,5 76,0 1,-70 0,-141 1,-211 16,-1 33,-1 50,-1 0,82 1,163 0,244 -34,13 -71,18 -108,17 -24,-2 -50,-8 -69,-26 -17,-16 -22,-41 -22,-64 -1,-57 0,-114 0,-170z"/>
     <path class="fil0" d="M3748 10419c20,-9 45,3 49,26 5,28 -32,50 -54,32 -22,-14 -18,-48 5,-58z"/>
     <path class="fil0" d="M3871 10419c22,-10 51,6 50,31 1,27 -34,44 -55,27 -21,-14 -17,-48 5,-58z"/>
     <path class="fil0" d="M3985 10427c16,-20 50,-11 59,12 0,7 0,14 0,21 -7,13 -20,26 -37,23 -26,-1 -41,-37 -22,-56z"/>
    </g>
    <g>
     <path class="fil1" d="M2048 8059c91,-10 185,-10 276,7 76,15 150,44 215,86 73,48 133,115 175,191 51,90 79,192 93,295 18,145 14,293 -16,436 -32,144 -103,283 -221,374 -61,47 -133,79 -207,99 -103,26 -210,28 -316,17 -91,-10 -182,-29 -267,-66 -7,-3 -18,-8 -16,-18 0,-449 0,-898 0,-1347 88,-43 186,-63 284,-74zm3 256l0 0c0,331 0,662 0,993 46,18 96,20 145,20 83,-1 166,-35 220,-99 68,-77 95,-181 108,-281 12,-105 11,-211 -6,-315 -16,-89 -45,-180 -109,-247 -53,-60 -134,-90 -213,-92 -49,0 -99,3 -145,21z"/>
    </g>
    <path class="fil1" d="M662 8077c301,-1 602,0 904,0 0,79 0,159 0,239 -103,0 -205,0 -308,0 -1,410 1,820 0,1230 -95,-1 -191,0 -286,-1 0,-409 0,-819 0,-1228 -103,-2 -206,-1 -310,-1 -1,-80 0,-159 0,-239z"/>
   </g>
   <g>
    <polygon class="fil2" points="700,4540 4134,1107 7568,4540 4134,7974 "/>
    <path class="fil3" d="M3052 2905l0 0c0,45 39,86 84,90 42,5 84,-23 98,-63 178,-1 357,0 536,-1 15,-1 31,4 42,16 54,54 101,113 151,171 56,63 110,131 175,186 9,6 17,17 28,15 19,-11 35,-27 51,-42 101,-100 186,-213 282,-317 11,-12 23,-24 40,-27 19,-2 39,-1 58,-2 149,1 299,1 448,1 15,43 63,72 107,61 47,-9 82,-56 75,-103 -4,-46 -48,-85 -94,-82 -39,-2 -73,25 -87,60 -184,0 -369,0 -553,0 -111,122 -220,246 -331,367 -51,-45 -93,-99 -137,-150 -57,-72 -128,-133 -185,-205 -4,-5 -9,-12 -16,-11 -197,-1 -394,0 -591,-1 -14,-35 -49,-62 -88,-60 -51,-3 -97,46 -93,97zm75 -41c24,-13 55,5 59,31 5,24 -17,48 -42,47 -22,1 -42,-20 -41,-42 0,-16 10,-30 24,-36zm1024 3698c27,-10 59,17 53,46 -3,29 -43,46 -66,26 -27,-18 -18,-64 13,-72zm204 -265c31,-9 62,25 50,55 -9,30 -54,35 -71,12 -18,-22 -7,-61 21,-67zm-405 1c23,-8 49,9 54,33 4,23 -17,50 -42,47 -27,2 -49,-29 -39,-54 5,-12 14,-22 27,-26zm604 -272c26,-17 65,5 62,36 2,31 -38,53 -63,34 -26,-15 -25,-56 1,-70zm-823 0c26,-17 63,6 61,36 2,31 -37,52 -63,35 -26,-15 -25,-58 2,-71zm-264 -311c18,-9 44,-4 55,14 17,24 -1,62 -31,64 -22,3 -44,-17 -45,-39 -1,-16 8,-31 21,-39zm1349 -3c26,-7 53,16 50,43 -1,21 -21,38 -42,38 -19,0 -37,-15 -41,-34 -4,-21 12,-44 33,-47zm694 -758c28,-16 66,11 60,43 -4,28 -41,46 -64,28 -27,-15 -24,-59 4,-71zm-2726 0c26,-15 61,8 60,37 0,30 -35,52 -61,36 -30,-13 -29,-61 1,-73zm2829 -359c12,-6 27,-5 40,-3 20,8 33,35 22,55 -10,25 -45,33 -65,15 -21,-17 -19,-52 3,-67zm-2956 -6c24,-6 52,15 50,41 2,23 -21,44 -44,42 -21,-1 -39,-21 -38,-42 -1,-20 14,-36 32,-41zm2829 -1101c29,-13 64,16 56,47 -5,30 -46,43 -67,23 -24,-18 -17,-60 11,-70zm-2657 -16c27,-8 57,19 51,47 -2,33 -50,46 -70,23 -23,-21 -11,-64 19,-70zm2618 -266c19,-13 47,-4 57,16 8,19 4,44 -15,55 -21,13 -52,2 -60,-21 -8,-18 1,-40 18,-50zm-2598 -2c30,-17 68,17 57,49 -8,29 -48,40 -69,18 -21,-19 -14,-56 12,-67zm2270 -342c24,-10 57,10 55,38 3,22 -20,44 -42,42 -17,1 -33,-12 -38,-28 -8,-20 5,-45 25,-52zm-2198 298l0 0c-10,1 -18,-7 -28,-9 -41,-14 -89,7 -109,45 -11,20 -11,43 -8,65 7,42 48,76 91,73 36,3 70,-21 85,-53 12,-23 9,-49 5,-74 15,-11 31,-21 46,-33 26,-22 56,-46 92,-45 197,0 394,0 591,1 84,106 171,210 255,316 13,16 25,35 44,45 20,11 52,-8 43,-33 -15,-40 -48,-70 -75,-102 -76,-77 -130,-173 -208,-248 -21,-20 -43,-47 -75,-44 -200,1 -400,0 -600,1 -62,6 -100,63 -149,95zm1670 -64l0 0c-42,39 -78,85 -113,130 -55,76 -121,142 -174,218 -6,9 -13,19 -10,30 0,12 7,28 21,24 22,-5 39,-22 55,-38 40,-38 73,-82 107,-126 53,-69 118,-129 164,-204 193,0 387,-1 581,-1 26,-1 51,11 74,24 29,19 57,40 83,63 -21,54 28,121 86,118 51,6 99,-42 97,-92 1,-43 -31,-84 -73,-92 -26,-7 -55,-1 -76,15 -55,-31 -94,-95 -163,-100 -199,-1 -399,-1 -598,-1 -25,-2 -44,18 -61,32zm-1505 201l0 0c-68,39 -128,91 -189,140 -32,-22 -77,-25 -109,-2 -40,24 -54,81 -31,121 21,43 77,63 120,43 42,-17 66,-68 53,-112 30,-25 63,-45 94,-69 36,-25 65,-60 107,-74 24,-8 49,-6 73,-6 124,0 249,0 373,0 23,-2 42,14 57,30 25,30 44,64 66,97 9,14 25,20 40,26 9,-6 28,-6 28,-21 3,-26 -13,-50 -28,-70 -33,-44 -73,-82 -107,-125 -156,-3 -312,-1 -468,-2 -28,-2 -55,11 -79,24zm1607 -23l0 0c-14,13 -24,31 -38,45 -30,35 -66,68 -89,109 -9,16 -9,35 -6,53 7,11 24,14 36,7 32,-14 43,-50 63,-76 21,-29 42,-69 82,-74 138,0 277,0 416,0 44,-1 80,28 112,55 46,37 94,73 139,112 -1,25 0,51 15,72 24,40 81,56 122,33 41,-20 62,-73 46,-115 -14,-42 -59,-69 -102,-62 -16,0 -29,12 -44,15 -66,-47 -131,-95 -194,-146 -24,-19 -53,-30 -84,-29 -158,1 -316,0 -474,1zm-1173 158l0 0c-84,74 -159,156 -244,228 -16,16 -37,30 -45,53 -5,19 0,40 3,60 18,79 39,157 52,237 6,36 11,76 39,103 36,36 81,61 122,91 68,48 138,95 198,154 -4,15 -14,28 -21,43 -47,82 -109,156 -144,244 32,30 65,58 97,88 60,54 116,112 173,169 24,21 50,48 84,48 35,0 67,-15 99,-26 65,-22 130,-47 196,-67 1,-26 1,-52 0,-78 -60,-35 -109,-86 -162,-129 -25,-21 -50,-43 -81,-55 -3,-14 1,-29 5,-43 12,-41 31,-79 51,-117 15,-32 34,-63 41,-98 2,-23 -6,-46 -13,-67 -23,-61 -53,-118 -81,-177 -66,-4 -134,-12 -197,-33 -63,-21 -108,-72 -153,-117 -23,-26 -48,-52 -61,-85 42,8 82,23 122,35 94,31 187,65 281,95 21,7 44,16 51,39 24,69 57,133 85,200 13,33 30,65 36,100 -12,48 -38,91 -59,136 -16,36 -33,72 -36,111 134,0 268,-1 401,1 2,-1 6,-2 8,-2 -9,-73 -51,-134 -81,-199 -9,-21 -19,-44 -9,-66 29,-86 71,-167 105,-251 10,-24 19,-52 45,-63 38,-16 78,-25 116,-38 70,-21 136,-49 205,-72 33,-10 66,-22 100,-25 -25,47 -64,85 -101,123 -28,26 -57,54 -93,69 -60,27 -126,34 -190,41 -11,2 -27,-3 -32,9 -22,49 -47,97 -67,146 -12,32 -30,64 -22,99 27,84 89,156 98,245 -91,49 -155,135 -244,188 -4,25 -1,51 -3,76 55,20 111,38 166,60 36,12 71,30 109,38 24,4 48,-9 67,-23 42,-34 82,-70 123,-105 60,-55 123,-108 178,-169 13,-11 1,-28 -4,-40 -44,-85 -102,-161 -148,-245 -10,-15 7,-25 16,-34 80,-69 168,-126 254,-186 29,-22 61,-46 71,-82 12,-40 17,-83 26,-124 12,-62 28,-123 40,-185 5,-22 7,-49 -10,-67 -22,-26 -50,-45 -74,-69 -69,-62 -132,-131 -203,-191 -15,1 -28,7 -41,11 -91,33 -179,75 -268,114 -105,46 -208,96 -315,136 -26,10 -51,-7 -75,-15 -158,-65 -311,-139 -468,-205 -39,-15 -77,-33 -118,-42zm-350 92l0 0c-44,29 -84,62 -125,93 -73,55 -143,115 -225,157 0,226 -1,452 -1,677 1,10 -7,16 -13,22 -29,27 -56,54 -87,76 -17,-4 -32,-14 -49,-13 -50,-3 -95,39 -97,89 -5,56 50,108 106,98 53,-5 93,-62 79,-114 -8,-15 10,-22 18,-31 33,-28 65,-59 104,-80 3,-34 5,-67 5,-101 2,-137 -1,-275 -2,-412 -4,-34 -2,-69 -2,-104 -1,-18 2,-37 6,-55 10,-32 38,-52 64,-70 63,-42 125,-86 187,-130 32,-25 66,-50 91,-83 5,-7 12,-21 1,-26 -19,-9 -43,-5 -60,7zm1926 1l0 0c-2,20 8,40 25,51 85,62 170,124 255,186 23,16 48,32 61,57 11,26 9,54 8,81 -3,50 -2,100 -3,150 -1,134 -7,268 0,401 2,16 0,33 5,48 40,23 78,49 111,80 -11,20 -17,43 -13,66 5,36 33,67 69,76 23,4 50,3 71,-10 30,-17 49,-52 46,-87 -1,-37 -29,-72 -64,-83 -23,-8 -47,-5 -69,2 -30,-27 -61,-54 -91,-82 -1,-226 0,-453 -1,-679 3,-9 -7,-12 -12,-15 -54,-26 -96,-69 -145,-104 -51,-37 -104,-72 -155,-110 -27,-18 -54,-40 -87,-42 -4,4 -11,7 -11,14zm-1935 274l0 0c-11,5 -20,15 -30,23 -23,22 -52,37 -77,56 -25,18 -50,40 -54,72 -2,27 -1,54 0,80l3 4c1,80 2,160 2,239l2 4c0,118 1,235 1,353 1,51 -5,103 -4,155 -51,35 -96,79 -142,121 -6,7 -14,3 -20,0 -19,-10 -41,-8 -62,-6 -33,7 -60,35 -68,67 -4,23 -4,48 8,68 17,33 56,54 93,49 58,-4 100,-71 77,-123 39,-38 86,-66 127,-102 19,-16 39,-34 47,-57 4,-114 3,-228 4,-341 1,-159 2,-317 2,-476 1,-14 -3,-30 3,-43 40,-27 85,-48 117,-85 13,-14 19,-33 17,-52 -14,-6 -30,-10 -46,-6zm1958 5l0 0c-3,18 0,38 13,52 34,38 80,60 122,86 2,239 -3,478 -1,717 2,47 -2,95 7,141 13,23 34,39 51,58 39,39 86,71 127,108 -10,39 7,83 41,104 40,27 99,16 126,-23 30,-40 21,-103 -20,-132 -24,-18 -56,-20 -84,-14 -11,3 -20,11 -31,15 -37,-29 -69,-63 -106,-92 -21,-17 -43,-37 -44,-66 -3,-46 0,-92 -1,-138 0,-209 -1,-417 1,-625 -1,-31 8,-68 -17,-92 -24,-24 -54,-41 -79,-64 -29,-23 -66,-50 -105,-35zm-1927 396l0 0c-11,17 -10,38 -11,57 1,349 0,698 1,1046 2,51 46,85 82,114 31,22 57,49 84,75 38,35 78,67 118,100 0,23 2,46 -1,69 -30,6 -55,30 -65,58 -8,18 -5,38 -4,57 7,17 15,33 29,45 20,19 50,26 77,24 38,-7 71,-37 78,-75 10,-41 -14,-84 -50,-104 -1,-30 1,-60 -1,-90 0,-16 -14,-27 -25,-36 -70,-56 -131,-120 -201,-176 -26,-21 -56,-44 -59,-80 -5,-58 2,-116 1,-174 0,-160 0,-320 0,-481 1,-119 -1,-238 1,-356 0,-25 8,-59 -16,-75 -12,-4 -31,-12 -38,2zm1905 1l0 0c-17,16 -19,40 -21,62 0,44 -1,89 4,133 1,157 0,314 0,471 0,118 -1,235 2,352 4,25 -1,49 -3,74 -8,31 -34,52 -58,72 -61,49 -116,107 -177,156 -17,14 -39,25 -45,48 -9,30 -5,62 -6,93 -34,15 -62,49 -61,88 -2,40 26,79 65,91 35,13 77,-1 100,-29 22,-26 28,-64 16,-95 -10,-26 -32,-44 -56,-55 0,-20 0,-41 1,-61 -2,-11 9,-15 15,-21 75,-59 149,-118 215,-188 26,-31 60,-64 57,-108 0,-215 6,-430 5,-645 -1,-56 1,-112 -3,-168 -1,-65 0,-129 -6,-193 -1,-28 -3,-56 -10,-84 -12,1 -25,-2 -34,7zm-1691 512l0 0c-1,181 -1,361 -1,541 -1,27 15,51 34,68 23,22 48,41 70,64 42,42 87,81 129,123 25,25 54,46 73,77 15,24 12,53 12,79 -2,78 -1,156 -2,233 -3,25 -4,50 -4,75 -33,15 -59,47 -59,84 -4,51 41,100 92,98 58,5 108,-58 93,-114 -6,-31 -30,-54 -57,-68 -1,-114 -1,-228 -1,-342 -1,-31 -1,-67 -25,-90 -40,-40 -85,-73 -123,-115 -35,-39 -71,-76 -111,-110 -24,-22 -52,-44 -56,-77 -7,-44 -2,-89 -2,-134 2,-71 1,-142 5,-213 1,-67 7,-137 -13,-202 -19,1 -54,-5 -54,23zm1458 -22l0 0c-15,98 -11,197 -11,295 1,45 -2,90 3,134 0,38 2,76 2,114 -1,28 -23,48 -42,66 -78,75 -152,155 -235,225 -23,19 -39,46 -40,76 -2,124 1,248 -1,372 -32,16 -57,47 -58,84 -4,50 39,99 91,98 27,2 54,-10 72,-30 25,-26 31,-67 18,-99 -11,-26 -33,-45 -59,-55 0,-88 0,-177 1,-266 0,-33 -2,-66 2,-99 4,-29 27,-49 47,-68 35,-33 72,-66 107,-100 40,-37 82,-70 118,-110 19,-23 41,-48 41,-79 0,-172 0,-343 0,-515 0,-15 1,-31 -10,-42 -16,-1 -31,-2 -46,-1zm-729 226l0 0c-52,16 -103,37 -155,52 -34,12 -70,19 -100,39 -27,18 -33,53 -34,83 -1,61 4,122 10,183 14,10 30,18 45,27 77,44 149,95 228,134 1,359 0,718 1,1077 -33,15 -59,48 -60,85 -4,50 40,99 91,97 51,4 97,-42 96,-92 1,-39 -25,-77 -62,-90 -1,-355 2,-710 2,-1065 0,-6 0,-14 7,-15 91,-48 175,-109 266,-157 3,-85 16,-171 -5,-255 -63,-39 -138,-54 -207,-80 -40,-13 -80,-35 -123,-23zm505 27l0 0c-1,39 1,78 1,117l2 4c0,44 3,87 1,130 -2,23 -13,45 -29,62 -32,37 -71,67 -108,100 -45,39 -90,79 -135,118 -14,15 -32,25 -43,42 -1,245 0,490 -1,735 -35,16 -59,54 -55,93 2,41 36,78 77,85 40,8 84,-14 101,-51 9,-20 13,-43 6,-65 -7,-32 -34,-57 -65,-67 2,-90 1,-180 1,-269 0,-112 2,-225 -1,-337 0,-34 -9,-73 14,-102 31,-34 69,-60 102,-92 66,-58 128,-121 198,-174 -1,-116 -6,-232 -8,-348 -20,4 -46,-1 -58,19zm-1021 326l0 0c79,62 150,134 225,202 23,20 48,38 70,59 20,19 17,49 18,75 0,215 0,430 -2,645 -50,15 -75,78 -53,125 15,33 49,56 86,56 44,1 86,-34 92,-78 8,-43 -17,-89 -58,-104 -2,-245 -3,-490 -2,-735 -48,-33 -85,-78 -129,-115 -57,-50 -119,-95 -166,-156 -23,-29 -21,-69 -19,-104 2,-65 6,-131 2,-196 -9,-24 -41,-13 -60,-20 -4,116 -4,231 -4,346z"/>
   </g>
  </g>
 </g>
</svg>
