<svg xmlns="http://www.w3.org/2000/svg" viewBox="0 0 1080 1080"><defs><style>.cls-1{fill:#00bf76;}.cls-2,.cls-3,.cls-6{fill:none;stroke:#000;stroke-miterlimit:10;}.cls-2{stroke-width:7px;}.cls-4{fill:#2e2e39;}.cls-5{fill:#b2b1b8;}.cls-6{stroke-width:3px;}.cls-7{fill:#0500d6;}</style></defs><g id="Tower"><path class="cls-1" d="M519.6,593.7l-.13.21h0l.13-.2Zm-5.19,82.15,0,.08.17.27.05-.05Zm0,0,0,.08.17.27.05-.05Zm5.19-82.15-.13.21h0l.13-.2Z"/><path class="cls-1" d="M514.41,675.85l0,.08.17.27.05-.05Z"/><path class="cls-1" d="M519.6,593.7l-.13.21h0l.13-.2Z"/><path class="cls-1" d="M543,433.68l-2.07,2.63,2.67,3.51,1.29-1.9Z"/><path class="cls-1" d="M578.22,767.86l25.57-44.44L572.73,679l25.62-37.81-27.6-37.91,22.07-42.77-23.89-41.2,19.54-26.61-22.22-28.5,18.33-29.18-20-23.86,16.5-29-19.59-21.35,16.88-21.13-16.84-18.08,14-16.7-14.4-14.39,12.72-15.12-14-14L572.56,246l-13.41-13.4,12.62-13.49-12.69-12.68,10.58-13.1-11.2-11.2L566.93,168l-10.35-10.35,5.84-12.61-10.27-6.21L556,128.19l-8.45-7.37-3.09,4.36-5.65-7.33-9.18,5.58,3.68,9.43-9.26,4.3,6.3,12L516.81,161l12.08,18.65-14,14,12.21,16.73,2.21-2.18,2.07,2.19,11-16-.2-.2,1.1-1.1,1.83-2.65-12.07-10.93,12-20.48-10.16-9.45,10.56-8.86-7.68-7.12,3-3.09,7.32,9.09-7,10.3,11,8.27L541,169.32l13.07,13.07-10.74,10.74-.9,1.3,12.13,12.13-13,13.06,13,13-14.09,14.09,14.78,14.77L541.3,275.42l15.23,15.22L541.22,306,557,321.74,540.83,339.3l16.38,21.6L541,381.13l19.56,30.15L543,433.68l1.89,4.24-1.29,1.9,18.6,24.49-19.74,24.58L526,465.47l17.53-25.65-2.67-3.51,2.07-2.63L528.2,400.54l16.59-43.17L527.07,326l17.82-28.88-15-25.73,15.24-14-12.93-17.69,13-14.65-13.83-14.64-1.91,2.77,11.27,11.94-10.67,12.06-12.49-12.69,11.49-11.4-2-2.69-14.17,14.06,14.83,15.06-16.59,15.16,14.57,16.48-16.51,23.64,14.1,31.08L505.52,359l19,41.46-23.93,39.15,21.26,25.85-24.56,29.27,22.35,32.4-26.06,31.41L517.51,597,488.8,642.13l23.67,37-28.8,47.81,28.74,38.58-34,53.37,28,43.18,3-.3L543,812l35.77,50.55,3.94.47,26.9-52.36ZM540.8,191l-11.57,16.78-10-13.73,11.49-11.56.33-.33.34.32Zm.08-31.3-10,17-9.8-15.13,11.26-9.82Zm-.39-19.05L532.93,147l-4.35-8.31,5.94-2.75.59-.28.36.34ZM536,130.72l-2.31-5.91,4.31-2.62,2.78,3.61ZM599.9,723.6,576.08,765,545,723.57,570.81,682Zm-56-79.75,24.86,35.25L542.05,722,516.4,679.18Zm-1.5-6.19-21-40.57,21.86-34,23.65,40.31Zm51.93,3.63-23.62,34.86h0l-.06-.09L545,639.69l23.69-33.19.16-.2.22.3Zm-5.26-80.66-20.34,39.43-23.84-40.6,22.05-37ZM544.84,130.34l3.31-4.65,4,3.5-2.56,7.06Zm.72,18.85,4.69-6.87.38-.54.37.23,7.2,4.34L554,155.49Zm.08,20.13,9-9,8.17,8.16-6.72,11.22Zm1.24,24.91,9.51-9.51.32.33,8.53,8.53-8.49,10.52Zm-.73,25.39,10.73-10.73.13.13,10.18,10.18-10.37,11.08Zm-1,27.11L556.86,235l11.24,11.24-10.66,12.84Zm.84,28.69,11.6-11.59,11.78,11.78-10.59,12.6ZM545.88,306l13-13,.1.1h0L571,305.14l-11.84,14.12Zm-.76,33.55,14.18-15.38L574,339.88l-14.66,18.37ZM545,381.34l14.26-17.74.12-.15L577,382.65l-14.55,25.56Zm0,55,17.36-22.14.16-.22.22.27,17.72,21.09-16.39,26.11ZM564.21,467l0,0,.16.21,20,25.6-17.22,23.43-.26.34-.14-.16L545.11,490.8ZM543.8,494.36l21.14,25-22.31,37.42-19-29.59ZM515.78,255l14.11-12.88L540.77,257l-12.53,11.49-.27.25-.27-.31ZM513,295.19l14.71-21.07,13.34,22.94-15.67,25.41Zm-3.81,63.94,16-29.76,15.95,28.26-14.88,38.71Zm-4.54,80.21,21.52-35.23,14.91,33.47-17.18,25.17Zm-3.2,55.6,22.45-26.76L541,492.61l-19.34,31.61Zm-3.79,63.88,23.9-28.8L541,560.4l-21.4,33.32-.13.2h0Zm-5,83.31,26.6-41.84L541,642.18l-26.44,34-.05.05-.17-.27Zm-5.08,84.56,26.77-44.44L541,726.7l-26.5,35.81-.09.13-.1-.14ZM541,809.15l-33.11,49-25.52-39.36,32.08-50.39L540.94,809l0,.09Zm-24.56-43.69L544.15,728l30,39.95-31,38.42Zm64.34,94.22L545,809.2l31.15-38.53L605.77,811Z"/><path class="cls-1" d="M529.31,208.25l-2.21,2.18,2,2.69.16-.16.24.25,1.91-2.77Z"/><path class="cls-1" d="M542.22,194.23l.2.2.9-1.3Zm-12.91,14-2.21,2.18,2,2.69.24.33.16-.24,1.91-2.77Z"/><path class="cls-1" d="M540.94,809l0,0,.05.08,0,0Z"/><path class="cls-1" d="M570.65,676.06h0l.06.09h0Z"/><path class="cls-1" d="M543,433.68l-2.07,2.63,2.67,3.51,1.29-1.9Z"/><path class="cls-1" d="M542.22,194.23l.2.2.9-1.3Z"/><polyline class="cls-2" points="437.5 1022.42 441.51 1005.43 478.67 848.06 519.27 156.13 542.97 94.96 563.87 156.13 610.19 848.06 653.53 1005.41 653.53 1005.42 657.59 1022.42"/><polyline class="cls-2" points="542.97 1023.09 542.97 1007.76 542.97 94.96"/><path d="M539.47,113c1.68-26.21,3-52.45,3.34-78.71h.32c0,6.56.25,13.12.43,19.68.47,13.12,1,26.24,1.73,39.36.35,6.55.73,13.11,1.18,19.67Z"/><polygon class="cls-2" points="491.54 211.61 542.97 195.89 596.75 211.61 596.75 243.06 544.14 262.5 491.54 243.06 491.54 211.61"/><polyline class="cls-2" points="491.54 243.06 542.97 227.05 596.75 243.06"/><rect x="474.76" y="179.35" width="9.36" height="73.76" rx="2.82"/><rect class="cls-3" x="480.53" y="212.81" width="11.72" height="3.12"/><rect x="603.83" y="179.35" width="9.36" height="73.76" rx="2.82"/><rect class="cls-3" x="595.71" y="212.81" width="11.72" height="3.12"/><polygon class="cls-2" points="491.7 362.88 543.14 347.16 596.91 362.88 596.91 394.33 544.3 413.77 491.7 394.33 491.7 362.88"/><polyline class="cls-2" points="491.7 394.33 543.14 378.32 596.91 394.33"/><path class="cls-4" d="M451.45,327.43c16.78,0,30.38,20.75,30.38,46.36s-13.6,46.37-30.38,46.37a20.92,20.92,0,0,1-9.27-2.2c14-4.14,24.56-22.94,24.56-45.52,0-20.68-8.87-38.19-21.11-44.16A20.39,20.39,0,0,1,451.45,327.43Z"/><path class="cls-5" d="M445.63,328.28c12.24,6,21.11,23.48,21.11,44.16,0,22.58-10.56,41.38-24.56,45.52-12.24-6-21.1-23.49-21.1-44.17C421.08,351.22,431.64,332.42,445.63,328.28Z"/><rect x="604" y="330.63" width="12.48" height="73.76"/><rect x="476.57" y="340.17" width="12.48" height="73.76"/><rect class="cls-3" x="595.87" y="364.66" width="11.72" height="1.98"/><rect class="cls-3" x="595.87" y="389.76" width="11.72" height="1.98"/><rect class="cls-3" x="595.87" y="236.25" width="11.72" height="1.98"/><path d="M441.51,1005.43l46.19-105.9,7-.55-54.38,124.69-2.86-1.25Z"/><path d="M543,1022.42l-3,.67-27.3-125.18c2.07-.1,4.19-.2,6.35-.28l24,110.13.12.54h0Z"/><path d="M543,1008.81l.12-.5h0l26.07-110.66c2.1.08,4.21.19,6.33.31L546,1023.14l-3-.72Z"/><path d="M653.53,1005.42l-54.3-105.51c-2.46-.28-4.92-.52-7.4-.75l63,122.42,2.78-1.43Z"/><polygon class="cls-6" points="615.39 866.95 542.97 869.18 474.61 865.26 506.42 862.02 509.45 861.72 542.97 858.32 578.78 862.58 582.72 863.05 615.39 866.95"/><path class="cls-6" d="M466,901.75s8.24-1.09,21.7-2.22l7-.55c5.4-.39,11.41-.77,17.9-1.07,2.06-.1,4.18-.2,6.33-.28,15.12-.58,32.36-.77,50.19,0,2.1.08,4.21.19,6.33.31q8.14.45,16.33,1.21h0q3.7.35,7.41.75c8.9,1,17.73,2.29,26.32,4"/><ellipse cx="438.37" cy="1021.97" rx="13.45" ry="2.96"/><ellipse cx="542.97" cy="1023.09" rx="13.45" ry="2.96"/><ellipse cx="657.59" cy="1023.14" rx="13.45" ry="2.96"/></g><g id="Tower_copy" data-name="Tower copy"><path class="cls-7" d="M519.6,593.7l-.13.21h0l.13-.2Zm-5.19,82.15,0,.08.17.27.05-.05Zm0,0,0,.08.17.27.05-.05Zm5.19-82.15-.13.21h0l.13-.2Z"/><path class="cls-7" d="M514.41,675.85l0,.08.17.27.05-.05Z"/><path class="cls-7" d="M519.6,593.7l-.13.21h0l.13-.2Z"/><path class="cls-7" d="M578.22,767.86l25.57-44.44L572.73,679l25.62-37.81-27.6-37.91,22.07-42.77-23.89-41.2,19.54-26.61-22.22-28.5,18.33-29.18-20-23.86,16.5-29-19.59-21.35,16.88-21.13-16.84-18.08,14-16.7-14.4-14.39,12.72-15.12-14-14L572.56,246l-13.41-13.4,12.62-13.49-12.69-12.68,10.58-13.1-11.2-11.2L566.93,168l-10.35-10.35,5.84-12.61-10.27-6.21L556,128.19l-8.45-7.37-3.09,4.36-5.65-7.33-9.18,5.58,3.68,9.43-9.26,4.3,6.3,12L516.81,161l12.08,18.65-14,14,12.21,16.73,2.21-2.18,2.07,2.19,11-16-.2-.2,1.1-1.1,1.83-2.65-12.07-10.93,12-20.48-10.16-9.45,10.56-8.86-7.68-7.12,3-3.09,7.32,9.09-7,10.3,11,8.27L541,169.32l13.07,13.07-10.74,10.74-.9,1.3,12.13,12.13-13,13.06,13,13-14.09,14.09,14.78,14.77L541.3,275.42l15.23,15.22L541.22,306,557,321.74,540.83,339.3l16.38,21.6L541,381.13l19.56,30.15L543,433.68,528.2,400.54l16.59-43.17L527.07,326l17.82-28.88-15-25.73,15.24-14-12.93-17.69,13-14.65-13.83-14.64-1.91,2.77,11.27,11.94-10.67,12.06-12.49-12.69,11.49-11.4-2-2.69-14.17,14.06,14.83,15.06-16.59,15.16,14.57,16.48-16.51,23.64,14.1,31.08L505.52,359l19,41.46-23.93,39.15,21.26,25.85-24.56,29.27,22.35,32.4-26.06,31.41L517.51,597,488.8,642.13l23.67,37-28.8,47.81,28.74,38.58-34,53.37,28,43.18,3-.3L543,812l35.77,50.55,3.94.47,26.9-52.36ZM540.8,191l-11.57,16.78-10-13.73,11.49-11.56.33-.33.34.32Zm.08-31.3-10,17-9.8-15.13,11.26-9.82Zm-.39-19.05L532.93,147l-4.35-8.31,5.94-2.75.59-.28.36.34ZM536,130.72l-2.31-5.91,4.31-2.62,2.78,3.61ZM599.9,723.6,576.08,765,545,723.57,570.81,682ZM543.8,494.36l21.14,25-22.31,37.42-19-29.59Zm-1.38-5.47L526,465.47l17.53-25.65,18.6,24.49Zm.79,74.2,23.65,40.31L542.4,637.66l-21-40.57Zm.69,80.76,24.86,35.25L542.05,722,516.4,679.18Zm50.43-2.56-23.62,34.86h0l-.06-.09L545,639.69l23.69-33.19.16-.2.22.3Zm-5.26-80.66-20.34,39.43-23.84-40.6,22.05-37Zm-4.73-67.83-17.22,23.43-.26.34-.14-.16L545.11,490.8,564.21,467l0,0,.16.21Zm-39.5-362.46,3.31-4.65,4,3.5-2.56,7.06Zm.72,18.85,4.69-6.87.38-.54.37.23,7.2,4.34L554,155.49Zm.08,20.13,9-9,8.17,8.16-6.72,11.22Zm1.24,24.91,9.51-9.51.32.33,8.53,8.53-8.49,10.52Zm-.73,25.39,10.73-10.73,10.31,10.31-10.37,11.08Zm-1,27.11L556.86,235l11.24,11.24-10.66,12.84Zm.84,28.69,11.6-11.59,11.78,11.78-10.59,12.6ZM545.88,306l13-13,.1.1h0L571,305.14l-11.84,14.12Zm-.76,33.55,14.18-15.38L574,339.88l-14.66,18.37ZM545,381.34l14.26-17.74.12-.15L577,382.65l-14.55,25.56Zm17.41,32.86.16-.22.22.27,17.72,21.09-16.39,26.11-19.07-25.11ZM515.78,255l14.11-12.88L540.77,257l-12.53,11.49-.27.25-.27-.31ZM513,295.19l14.71-21.07,13.34,22.94-15.67,25.41Zm-3.81,63.94,16-29.76,15.95,28.26-14.88,38.71Zm-4.54,80.21,21.52-35.23,14.91,33.47-17.18,25.17Zm-3.2,55.6,22.45-26.76L541,492.61l-19.34,31.61Zm-3.79,63.88,23.9-28.8L541,560.4l-21.4,33.32-.13.2h0Zm-5,83.31,26.6-41.84L541,642.18l-26.44,34-.05.05-.17-.27Zm-5.08,84.56,26.77-44.44L541,726.7l-26.5,35.81-.09.13-.1-.14ZM541,809.15l-33.11,49-25.52-39.36,32.08-50.39L540.94,809l0,.09Zm-24.56-43.69L544.15,728l30,39.95-31,38.42Zm64.34,94.22L545,809.2l31.15-38.53L605.77,811Z"/><path class="cls-7" d="M529.31,208.25l-2.21,2.18,2,2.69.16-.16.24.25,1.91-2.77Z"/><path class="cls-7" d="M529.31,208.25l-2.21,2.18,2,2.69.24.33.16-.24,1.91-2.77Zm12.91-14,.2.2.9-1.3Z"/><path class="cls-7" d="M540.94,809l0,0,.05.08,0,0Z"/><path class="cls-7" d="M570.65,676.06h0l.06.09h0Z"/><path class="cls-7" d="M542.22,194.23l.2.2.9-1.3Z"/><path class="cls-7" d="M543,870.68h-.07l-68.36-3.91-.06-3,68.52-7,.17,0,72.42,8.63-.14,3Zm-49.41-5.84L543,867.68l52.32-1.61L543,859.82Z"/><path class="cls-7" d="M625.27,905.33c-8.22-1.59-17-2.91-26.2-3.93-2.43-.27-4.87-.51-7.31-.74h-.08c-5.21-.48-10.68-.89-16.27-1.2-2.12-.12-4.22-.23-6.31-.31-15.64-.69-32.49-.69-50.07,0q-3.22.12-6.32.28c-5.93.27-11.94.63-17.86,1.07l-7,.55c-13.26,1.11-21.54,2.2-21.63,2.21l-.39-3c.08,0,8.43-1.11,21.77-2.22,2.22-.18,4.58-.37,7.06-.55,5.95-.44,12-.8,17.94-1.08,2.06-.1,4.18-.2,6.34-.28,17.67-.68,34.6-.68,50.31,0,2.11.08,4.23.19,6.36.31,5.6.32,11.09.72,16.31,1.21H592q3.72.35,7.43.75c9.25,1,18.14,2.36,26.44,4Z"/><polygon class="cls-7" points="654.19 1023.23 650.13 1006.22 606.72 848.65 606.7 848.3 560.41 156.83 542.77 105.18 522.73 156.89 482.14 848.57 482.07 848.87 440.9 1023.22 434.09 1021.61 475.19 847.55 515.81 155.38 543.18 84.74 567.33 155.44 567.36 155.9 613.66 847.48 657.03 1004.94 657.03 1005.01 661 1021.61 654.19 1023.23"/><rect class="cls-7" x="539.47" y="94.96" width="7" height="928.13"/><path class="cls-7" d="M539.47,113c1.68-26.21,3-52.45,3.34-78.71h.32c0,6.56.25,13.12.43,19.68.47,13.12,1,26.24,1.73,39.36.35,6.55.73,13.11,1.18,19.67Z"/><polygon class="cls-2" points="491.54 211.61 542.97 195.89 596.75 211.61 596.75 243.06 544.14 262.5 491.54 243.06 491.54 211.61"/><polyline class="cls-2" points="491.54 243.06 542.97 227.05 596.75 243.06"/><rect x="474.76" y="179.35" width="9.36" height="73.76" rx="2.82"/><rect class="cls-3" x="480.53" y="212.81" width="11.72" height="3.12"/><rect x="603.83" y="179.35" width="9.36" height="73.76" rx="2.82"/><rect class="cls-3" x="595.71" y="212.81" width="11.72" height="3.12"/><polygon class="cls-2" points="491.7 362.88 543.14 347.16 596.91 362.88 596.91 394.33 544.3 413.77 491.7 394.33 491.7 362.88"/><polyline class="cls-2" points="491.7 394.33 543.14 378.32 596.91 394.33"/><path class="cls-4" d="M451.45,327.43c16.78,0,30.38,20.75,30.38,46.36s-13.6,46.37-30.38,46.37a20.92,20.92,0,0,1-9.27-2.2c14-4.14,24.56-22.94,24.56-45.52,0-20.68-8.87-38.19-21.11-44.16A20.39,20.39,0,0,1,451.45,327.43Z"/><path class="cls-5" d="M445.63,328.28c12.24,6,21.11,23.48,21.11,44.16,0,22.58-10.56,41.38-24.56,45.52-12.24-6-21.1-23.49-21.1-44.17C421.08,351.22,431.64,332.42,445.63,328.28Z"/><rect x="604" y="330.63" width="12.48" height="73.76"/><rect x="476.57" y="340.17" width="12.48" height="73.76"/><rect class="cls-3" x="595.87" y="364.66" width="11.72" height="1.98"/><rect class="cls-3" x="595.87" y="389.76" width="11.72" height="1.98"/><rect class="cls-3" x="595.87" y="236.25" width="11.72" height="1.98"/><path class="cls-7" d="M441.51,1005.43l46.19-105.9,7-.55-54.38,124.69-2.86-1.25Z"/><path class="cls-7" d="M543,1022.42l-3,.67-27.3-125.18c2.07-.1,4.19-.2,6.35-.28l24,110.13.12.54h0Z"/><path class="cls-7" d="M543,1008.81l.12-.5h0l26.07-110.66c2.1.08,4.21.19,6.33.31L546,1023.14l-3-.72Z"/><path class="cls-7" d="M653.53,1005.42l-54.3-105.51c-2.46-.28-4.92-.52-7.4-.75l63,122.42,2.78-1.43Z"/><ellipse cx="438.37" cy="1021.97" rx="13.45" ry="2.96"/><ellipse cx="542.97" cy="1023.09" rx="13.45" ry="2.96"/><ellipse cx="657.59" cy="1023.14" rx="13.45" ry="2.96"/></g></svg>